<svg width="960" height="720" viewBox="0 0 960 720" fill="none" xmlns="http://www.w3.org/2000/svg">
  <rect width="960" height="720" rx="48" fill="#F5FAFF"/>
  <rect x="82" y="82" width="796" height="556" rx="34" fill="#FFFFFF" stroke="#DFEAF4" stroke-width="4"/>
  <rect x="136" y="138" width="368" height="420" rx="30" fill="#F9FBFD" stroke="#E6EDF4" stroke-width="3"/>
  <rect x="176" y="188" width="288" height="320" rx="24" fill="#EAF6DA"/>
  <rect x="208" y="220" width="224" height="88" rx="16" fill="#FFFFFF"/>
  <rect x="208" y="326" width="168" height="22" rx="11" fill="#EEF2F6"/>
  <rect x="208" y="362" width="198" height="22" rx="11" fill="#EEF2F6"/>
  <rect x="208" y="398" width="136" height="22" rx="11" fill="#EEF2F6"/>
  <rect x="548" y="170" width="264" height="170" rx="24" fill="#FFFFFF" stroke="#E9EDF2" stroke-width="3"/>
  <rect x="548" y="372" width="264" height="170" rx="24" fill="#FFFFFF" stroke="#E9EDF2" stroke-width="3"/>
  <path d="M590 254H770" stroke="#8FD14F" stroke-width="12" stroke-linecap="round"/>
  <path d="M590 444H738" stroke="#0A84FF" stroke-width="12" stroke-linecap="round"/>
  <rect x="114" y="114" width="48" height="12" rx="6" fill="#8FD14F"/>
  <rect x="114" y="114" width="12" height="48" rx="6" fill="#8FD14F"/>
  <rect x="798" y="114" width="48" height="12" rx="6" fill="#8FD14F"/>
  <rect x="834" y="114" width="12" height="48" rx="6" fill="#8FD14F"/>
  <rect x="114" y="594" width="48" height="12" rx="6" fill="#8FD14F"/>
  <rect x="114" y="558" width="12" height="48" rx="6" fill="#8FD14F"/>
  <rect x="798" y="594" width="48" height="12" rx="6" fill="#8FD14F"/>
  <rect x="834" y="558" width="12" height="48" rx="6" fill="#8FD14F"/>
</svg>
